<svg id="Group_745" data-name="Group 745" xmlns="http://www.w3.org/2000/svg" width="106.24" height="75.994" viewBox="0 0 106.24 75.994">
  <path id="Path_50" data-name="Path 50" d="M35.441,54.239A25.414,25.414,0,0,1,60.855,79.653s0,.12.006.347c.012,3.392-1.015,30.924-36.627,50.232,3.83-5.872,10.919-19.775,3.149-25.761-.179-.139-1.878-1.42-2.092-1.514A25.418,25.418,0,0,1,35.441,54.239ZM60.85,80.015a25.555,25.555,0,0,1-.163,2.554,25.555,25.555,0,0,0,.163-2.554Zm-.163,2.557a25.24,25.24,0,0,1-1.723,6.713,25.24,25.24,0,0,0,1.723-6.713Zm-1.725,6.719q-.459,1.119-1.019,2.182.559-1.062,1.019-2.182ZM57.92,91.516q-.441.83-.939,1.625.5-.795.939-1.625Zm-.966,1.669c-.076.121-.154.243-.233.363q.118-.181.233-.363Zm-.281.435q-.507.769-1.066,1.5.559-.728,1.066-1.5Zm-1.106,1.55c-.087.114-.177.228-.267.34q.135-.17.267-.34Zm-.315.4q-.418.522-.866,1.021.446-.5.866-1.021Zm-.911,1.072c-.087.1-.177.194-.265.29.088-.1.177-.192.265-.29Zm-.356.388c-.089.095-.179.19-.27.283.091-.093.181-.188.27-.283Zm-.347.362q-.442.454-.908.887.465-.432.908-.887Zm-1,.974q-.139.127-.28.252.141-.125.28-.252Zm-.394.355c-.089.078-.178.157-.269.234.091-.078.18-.156.269-.234Zm-.417.359q-.443.375-.9.729.459-.354.9-.729Zm-1.06.849-.265.2.265-.2Zm-.43.319c-.093.067-.186.134-.281.2.094-.066.187-.134.281-.2Zm-.41.29c-.182.126-.365.249-.55.371.186-.122.369-.245.55-.371Zm-.708.475-.257.163.257-.163Zm-.934.574-.269.157.269-.157Zm-.487.279c-.157.087-.315.173-.473.257.158-.085.316-.17.473-.257Zm-.693.373c-.087.045-.175.089-.262.133.088-.044.176-.087.262-.133Zm-1,.488c-.09.042-.18.084-.27.125.09-.04.18-.083.27-.125Zm-1.223.528-.3.12.3-.12Zm.5-.2c-.1.041-.2.081-.293.12l.293-.12Z" transform="translate(45.379 -54.239)" fill="#deebf9" fill-rule="evenodd"/>
  <path id="Path_51" data-name="Path 51" d="M-31.71,54.239A25.414,25.414,0,0,1-6.3,79.653s0,.12.006.347c.012,3.392-1.015,30.924-36.627,50.232,3.83-5.872,10.919-19.775,3.149-25.761-.179-.139-1.878-1.42-2.092-1.514A25.418,25.418,0,0,1-57.124,79.653,25.414,25.414,0,0,1-31.71,54.239ZM-6.3,80.015q-.019,1.293-.163,2.554.144-1.259.163-2.554Zm-.163,2.557a25.272,25.272,0,0,1-1.723,6.713,25.272,25.272,0,0,0,1.723-6.713ZM-8.19,89.291q-.459,1.119-1.019,2.182.558-1.062,1.019-2.182Zm-1.042,2.225q-.439.83-.938,1.625.5-.795.938-1.625Zm-.965,1.669q-.115.182-.233.363.118-.181.233-.363Zm-.281.435q-.506.769-1.067,1.5.561-.728,1.067-1.5Zm-1.106,1.55c-.088.114-.177.228-.267.34q.134-.17.267-.34Zm-.315.4c-.279.348-.568.688-.866,1.021q.446-.5.866-1.021Zm-.911,1.072c-.087.1-.177.194-.266.29.089-.1.178-.192.266-.29Zm-.356.388c-.089.095-.179.19-.27.283.091-.093.181-.188.27-.283Zm-.347.362q-.443.454-.908.887.465-.432.908-.887Zm-1,.974q-.139.127-.28.252.141-.125.28-.252Zm-.394.355-.269.234.269-.234Zm-.417.359q-.443.375-.9.729.46-.354.9-.729Zm-1.061.849-.264.2.264-.2Zm-.429.319c-.093.067-.187.134-.281.2.094-.066.188-.134.281-.2Zm-.41.29c-.182.126-.366.249-.55.371.185-.122.368-.245.55-.371Zm-.708.475c-.085.055-.171.109-.257.163.086-.054.172-.108.257-.163Zm-.934.574-.269.157.269-.157Zm-.488.279q-.234.131-.473.257c.159-.085.317-.17.473-.257Zm-.692.373c-.087.045-.175.089-.262.133.087-.044.176-.087.262-.133Zm-1,.488c-.09.042-.18.084-.271.125.091-.04.181-.083.271-.125Zm-1.224.528-.3.12.3-.12Zm.5-.2c-.1.041-.195.081-.292.12l.292-.12Z" transform="translate(57.124 -54.239)" fill="#deebf9" fill-rule="evenodd"/>
</svg>
