<?xml version="1.0" encoding="UTF-8"?>
<svg version="1.1" xmlns="http://www.w3.org/2000/svg" width="411" height="488">
<path d="M0 0 C1.06863281 0.00902344 2.13726562 0.01804688 3.23828125 0.02734375 C4.04652344 0.03894531 4.85476563 0.05054688 5.6875 0.0625 C5.3575 1.7125 5.0275 3.3625 4.6875 5.0625 C3.99301758 5.28389648 3.29853516 5.50529297 2.58300781 5.73339844 C-0.63241824 6.75896247 -3.84746006 7.7857262 -7.0625 8.8125 C-8.15433594 9.16054687 -9.24617188 9.50859375 -10.37109375 9.8671875 C-12.5932271 10.57721828 -14.81440414 11.29024816 -17.03466797 12.00610352 C-19.12531628 12.67988836 -21.21791248 13.34767915 -23.31298828 14.00756836 C-31.31190015 16.57898052 -38.99509134 19.75678683 -46.6875 23.125 C-47.34034973 23.40973175 -47.99319946 23.6944635 -48.66583252 23.98782349 C-89.85195394 41.98508343 -128.52429819 65.29134528 -162.3125 95.0625 C-163.03123291 95.69365723 -163.74996582 96.32481445 -164.49047852 96.97509766 C-170.80563698 102.58395136 -176.85653791 108.42029073 -182.82641602 114.39111328 C-184.37173066 115.9342353 -185.92490446 117.46914306 -187.47851562 119.00390625 C-193.87544499 125.36481894 -199.70549099 131.98295016 -205.3125 139.0625 C-206.40882622 140.39127661 -207.50871158 141.71713046 -208.61328125 143.0390625 C-216.35069875 152.38205071 -223.5104803 162.01931208 -230.3125 172.0625 C-230.75770996 172.71734375 -231.20291992 173.3721875 -231.66162109 174.046875 C-258.10647498 213.20993147 -278.21248184 256.36874381 -293.3125 301.0625 C-293.5230603 301.68429138 -293.73362061 302.30608276 -293.95056152 302.94671631 C-320.62580164 371.71516255 -320.62580164 371.71516255 -318.3125 441.0625 C-316.19074004 443.67342652 -314.63892992 444.55362246 -311.3125 445 C-294.67008962 446.23277114 -277.64068816 430.7072548 -265.3125 421.0625 C-264.36117187 420.32644531 -263.40984375 419.59039062 -262.4296875 418.83203125 C-257.41370435 414.89314793 -252.63398596 410.7390849 -247.9296875 406.43359375 C-246.48767091 405.12716977 -245.03912108 403.82743916 -243.5637207 402.55883789 C-238.04760511 397.81570745 -232.88061912 392.78018713 -227.75 387.625 C-226.93853516 386.81740234 -226.12707031 386.00980469 -225.29101562 385.17773438 C-220.97897707 380.8587353 -216.82222799 376.46564675 -212.84301758 371.83813477 C-210.76256047 369.42448593 -208.59962291 367.09047985 -206.4375 364.75 C-202.3468944 360.26452448 -198.46432157 355.65669456 -194.65234375 350.93359375 C-192.12516363 347.83262983 -189.53623995 344.79084545 -186.9375 341.75 C-182.71130674 336.78932755 -178.65015371 331.72196472 -174.65112305 326.57714844 C-170.9354002 321.81316615 -167.10706559 317.14997608 -163.25 312.5 C-158.32834062 306.56127719 -153.56335603 300.54227418 -148.89453125 294.40234375 C-144.78201135 289.03726311 -140.47286216 283.8272947 -136.1953125 278.59375 C-135.70063477 277.98273438 -135.20595703 277.37171875 -134.69628906 276.7421875 C-133.4976464 275.28723663 -132.24904308 273.87371987 -130.9921875 272.46875 C-127.52420242 267.50065975 -128.1579312 261.12751372 -128.13891602 255.27490234 C-128.132229 254.41238358 -128.12554199 253.54986481 -128.11865234 252.66120911 C-128.10465263 250.79680132 -128.09274264 248.9323769 -128.08270454 247.06794357 C-128.06623336 244.11746864 -128.04299615 241.16711795 -128.01780701 238.21670532 C-127.94717784 229.83105693 -127.88679781 221.44536016 -127.83569336 213.05957031 C-127.80392256 207.9238167 -127.76266179 202.78821065 -127.71549797 197.65257645 C-127.69947845 195.69656647 -127.68715665 193.74052261 -127.67859077 191.78446579 C-127.66645115 189.05326045 -127.64230999 186.32240342 -127.61547852 183.59130859 C-127.61488937 182.78290024 -127.61430023 181.97449188 -127.61369324 181.1415863 C-127.52215669 174.11798206 -127.52215669 174.11798206 -125.3125 171.0625 C-122.32655576 169.56952788 -119.60396376 169.94494772 -116.3125 170.0625 C-112.91422448 171.76163776 -112.2235535 175.67823199 -110.875 179.0625 C-110.57529297 179.79339844 -110.27558594 180.52429688 -109.96679688 181.27734375 C-109.35772895 182.78085633 -108.76302824 184.29025617 -108.18164062 185.8046875 C-107.63004756 187.23758992 -107.0533087 188.66126102 -106.44335938 190.0703125 C-103.50426768 197.48499947 -103.78053333 205.2109789 -103.6875 213.0625 C-103.65590799 214.79241842 -103.62322245 216.52231712 -103.58959961 218.25219727 C-103.37020722 230.33091258 -103.26273129 242.41150512 -103.13280678 254.49144936 C-103.05792432 261.43759793 -102.98132769 268.38372748 -102.90434647 275.32985306 C-102.8749884 278.00105509 -102.84638159 280.67226446 -102.81784058 283.34347534 C-102.55277679 307.839614 -102.0109034 332.28547959 -100.84074402 356.75776672 C-99.59707638 382.95859269 -99.59707638 382.95859269 -101.3125 392.0625 C-104.49859595 394.89804749 -108.67509003 394.32865425 -112.75 394.3125 C-114.04808594 394.31765625 -115.34617187 394.3228125 -116.68359375 394.328125 C-120.3125 394.0625 -120.3125 394.0625 -125.3125 392.0625 C-125.3125 378.2025 -125.3125 364.3425 -125.3125 350.0625 C-130.30282479 352.46303874 -130.30282479 352.46303874 -134.49609375 355.515625 C-135.02759033 355.96647461 -135.55908691 356.41732422 -136.10668945 356.88183594 C-136.64898193 357.35395508 -137.19127441 357.82607422 -137.75 358.3125 C-138.60694458 359.04774902 -138.60694458 359.04774902 -139.48120117 359.79785156 C-143.04924834 362.8856531 -146.45323973 366.07972659 -149.73046875 369.4765625 C-151.3959227 371.14612868 -153.13986732 372.66155922 -154.9375 374.1875 C-158.70121024 377.41977727 -162.15232063 380.90101813 -165.625 384.4375 C-170.35612172 389.23257419 -175.22737848 393.63736021 -180.51171875 397.828125 C-183.60906967 400.29909393 -186.61580065 402.86082796 -189.625 405.4375 C-195.8211575 410.7125323 -202.17848719 415.76124851 -208.61132812 420.74365234 C-210.22885606 421.99765434 -211.84113917 423.25841298 -213.453125 424.51953125 C-244.40379113 448.58795126 -277.75351157 471.76319965 -315.3125 484.0625 C-316.38129395 484.41828125 -316.38129395 484.41828125 -317.47167969 484.78125 C-336.6224592 490.90658262 -358.32036127 490.59681462 -376.375 481.5234375 C-390.38266508 473.31338936 -398.7837095 461.54951445 -403.1875 446.0625 C-418.93616824 382.27042611 -378.02904828 301.72488394 -346.25390625 248.91796875 C-333.97763512 228.96421454 -320.19038075 209.95155697 -304.94921875 192.16796875 C-302.59139771 189.40997097 -300.32359619 186.58803631 -298.0625 183.75 C-287.53003928 170.89123926 -275.60104185 159.25529 -263.875 147.5 C-263.26522308 146.88754425 -262.65544617 146.2750885 -262.02719116 145.64407349 C-255.63332126 139.22892328 -249.2405044 132.9063919 -242.3125 127.0625 C-241.14396825 126.04119252 -239.97729168 125.01775845 -238.8125 123.9921875 C-223.8605299 110.91663452 -208.44591462 98.65241347 -192.3125 87.0625 C-191.49201172 86.47291504 -190.67152344 85.88333008 -189.82617188 85.27587891 C-135.92003085 46.70074554 -76.18221176 15.97164817 -11.3125 1.0625 C-10.42046875 0.85109375 -9.5284375 0.6396875 -8.609375 0.421875 C-5.714846 -0.03101049 -2.92796437 -0.03217543 0 0 Z " fill="#C99D21" transform="translate(405.3125,-0.0625)"/>
<path d="M0 0 C6.55711013 0.27902596 10.95290044 2.86775148 16 7 C18.84501097 11.26751646 18.49485594 14.99556972 18 20 C16.9375 23.0625 16.9375 23.0625 15 25 C11.6875 26.125 11.6875 26.125 8 26 C2.70521406 22.63984739 0.41630682 18.99141014 -1.6875 13.0625 C-2.40707231 8.31332273 -2.65262581 4.14472783 0 0 Z " fill="#C99D21" transform="translate(273,112)"/>
</svg>
